<mxfile host="app.diagrams.net" modified="2024-02-05T20:07:08.538Z" agent="Mozilla/5.0 (Macintosh; Intel Mac OS X 10_15_7) AppleWebKit/537.36 (KHTML, like Gecko) Chrome/120.0.0.0 Safari/537.36" etag="URlPlECo2nu0XhXoaPKR" version="23.1.1" type="device">
  <diagram id="C5RBs43oDa-KdzZeNtuy" name="Page-1">
    <mxGraphModel dx="954" dy="494" grid="1" gridSize="10" guides="1" tooltips="1" connect="1" arrows="1" fold="1" page="1" pageScale="1" pageWidth="1654" pageHeight="2336" math="0" shadow="0">
      <root>
        <mxCell id="WIyWlLk6GJQsqaUBKTNV-0" />
        <mxCell id="WIyWlLk6GJQsqaUBKTNV-1" parent="WIyWlLk6GJQsqaUBKTNV-0" />
        <mxCell id="UDJwPJKPTDItisJJ8Bko-18" value="" style="group" parent="WIyWlLk6GJQsqaUBKTNV-1" vertex="1" connectable="0">
          <mxGeometry x="50" y="90" width="360" height="360" as="geometry" />
        </mxCell>
        <mxCell id="UDJwPJKPTDItisJJ8Bko-17" value="" style="whiteSpace=wrap;html=1;aspect=fixed;fillColor=none;movable=1;resizable=1;rotatable=1;deletable=1;editable=1;locked=0;connectable=1;" parent="UDJwPJKPTDItisJJ8Bko-18" vertex="1">
          <mxGeometry width="360" height="360" as="geometry" />
        </mxCell>
        <mxCell id="UDJwPJKPTDItisJJ8Bko-6" value="Client" style="rounded=0;whiteSpace=wrap;html=1;movable=1;resizable=1;rotatable=1;deletable=1;editable=1;locked=0;connectable=1;" parent="UDJwPJKPTDItisJJ8Bko-18" vertex="1">
          <mxGeometry x="115" y="70" width="120" height="60" as="geometry" />
        </mxCell>
        <mxCell id="UDJwPJKPTDItisJJ8Bko-15" style="edgeStyle=orthogonalEdgeStyle;rounded=0;orthogonalLoop=1;jettySize=auto;html=1;exitX=0.75;exitY=0;exitDx=0;exitDy=0;entryX=0.75;entryY=1;entryDx=0;entryDy=0;movable=1;resizable=1;rotatable=1;deletable=1;editable=1;locked=0;connectable=1;" parent="UDJwPJKPTDItisJJ8Bko-18" source="UDJwPJKPTDItisJJ8Bko-8" target="UDJwPJKPTDItisJJ8Bko-6" edge="1">
          <mxGeometry relative="1" as="geometry" />
        </mxCell>
        <mxCell id="UDJwPJKPTDItisJJ8Bko-8" value="Spring Boot Application" style="rounded=0;whiteSpace=wrap;html=1;movable=1;resizable=1;rotatable=1;deletable=1;editable=1;locked=0;connectable=1;" parent="UDJwPJKPTDItisJJ8Bko-18" vertex="1">
          <mxGeometry x="115" y="170" width="120" height="60" as="geometry" />
        </mxCell>
        <mxCell id="UDJwPJKPTDItisJJ8Bko-12" style="edgeStyle=orthogonalEdgeStyle;rounded=0;orthogonalLoop=1;jettySize=auto;html=1;exitX=0.25;exitY=1;exitDx=0;exitDy=0;entryX=0.25;entryY=0;entryDx=0;entryDy=0;movable=1;resizable=1;rotatable=1;deletable=1;editable=1;locked=0;connectable=1;" parent="UDJwPJKPTDItisJJ8Bko-18" source="UDJwPJKPTDItisJJ8Bko-6" target="UDJwPJKPTDItisJJ8Bko-8" edge="1">
          <mxGeometry relative="1" as="geometry" />
        </mxCell>
        <mxCell id="UDJwPJKPTDItisJJ8Bko-14" style="edgeStyle=orthogonalEdgeStyle;rounded=0;orthogonalLoop=1;jettySize=auto;html=1;exitX=0.75;exitY=0;exitDx=0;exitDy=0;entryX=0.75;entryY=1;entryDx=0;entryDy=0;movable=1;resizable=1;rotatable=1;deletable=1;editable=1;locked=0;connectable=1;" parent="UDJwPJKPTDItisJJ8Bko-18" source="UDJwPJKPTDItisJJ8Bko-9" target="UDJwPJKPTDItisJJ8Bko-8" edge="1">
          <mxGeometry relative="1" as="geometry" />
        </mxCell>
        <mxCell id="UDJwPJKPTDItisJJ8Bko-9" value="MongoDB" style="rounded=0;whiteSpace=wrap;html=1;movable=1;resizable=1;rotatable=1;deletable=1;editable=1;locked=0;connectable=1;" parent="UDJwPJKPTDItisJJ8Bko-18" vertex="1">
          <mxGeometry x="115" y="270" width="120" height="60" as="geometry" />
        </mxCell>
        <mxCell id="UDJwPJKPTDItisJJ8Bko-13" style="edgeStyle=orthogonalEdgeStyle;rounded=0;orthogonalLoop=1;jettySize=auto;html=1;exitX=0.25;exitY=1;exitDx=0;exitDy=0;entryX=0.25;entryY=0;entryDx=0;entryDy=0;movable=1;resizable=1;rotatable=1;deletable=1;editable=1;locked=0;connectable=1;" parent="UDJwPJKPTDItisJJ8Bko-18" source="UDJwPJKPTDItisJJ8Bko-8" target="UDJwPJKPTDItisJJ8Bko-9" edge="1">
          <mxGeometry relative="1" as="geometry" />
        </mxCell>
        <mxCell id="UDJwPJKPTDItisJJ8Bko-10" value="System Architecture Diagram" style="text;html=1;strokeColor=none;fillColor=none;align=center;verticalAlign=middle;whiteSpace=wrap;rounded=0;movable=1;resizable=1;rotatable=1;deletable=1;editable=1;locked=0;connectable=1;" parent="UDJwPJKPTDItisJJ8Bko-18" vertex="1">
          <mxGeometry x="90" y="20" width="170" height="30" as="geometry" />
        </mxCell>
        <mxCell id="UDJwPJKPTDItisJJ8Bko-20" value="HouseControler" style="swimlane;fontStyle=1;align=center;verticalAlign=top;childLayout=stackLayout;horizontal=1;startSize=26;horizontalStack=0;resizeParent=1;resizeParentMax=0;resizeLast=0;collapsible=1;marginBottom=0;whiteSpace=wrap;html=1;" parent="WIyWlLk6GJQsqaUBKTNV-1" vertex="1">
          <mxGeometry x="470" y="115" width="340" height="190" as="geometry">
            <mxRectangle x="487" y="115" width="130" height="30" as="alternateBounds" />
          </mxGeometry>
        </mxCell>
        <mxCell id="UDJwPJKPTDItisJJ8Bko-21" value="- houseService: HouseService" style="text;strokeColor=none;fillColor=none;align=left;verticalAlign=top;spacingLeft=4;spacingRight=4;overflow=hidden;rotatable=0;points=[[0,0.5],[1,0.5]];portConstraint=eastwest;whiteSpace=wrap;html=1;" parent="UDJwPJKPTDItisJJ8Bko-20" vertex="1">
          <mxGeometry y="26" width="340" height="26" as="geometry" />
        </mxCell>
        <mxCell id="UDJwPJKPTDItisJJ8Bko-22" value="" style="line;strokeWidth=1;fillColor=none;align=left;verticalAlign=middle;spacingTop=-1;spacingLeft=3;spacingRight=3;rotatable=0;labelPosition=right;points=[];portConstraint=eastwest;strokeColor=inherit;" parent="UDJwPJKPTDItisJJ8Bko-20" vertex="1">
          <mxGeometry y="52" width="340" height="8" as="geometry" />
        </mxCell>
        <mxCell id="UDJwPJKPTDItisJJ8Bko-23" value="+ getHouseById(id: Long) : ResponseEntity&amp;lt;HouseDto&amp;gt;&lt;br&gt;&lt;br&gt;+ addHouse(houseDto: HouseDto): ResponseEntity&amp;lt;Void&amp;gt;&lt;br&gt;&lt;br&gt;+ updateHouse(id: Long, houseDto: HouseDto):&amp;nbsp;&lt;br&gt;ResponseEntity&amp;lt;HouseDto&amp;gt;&lt;br&gt;&lt;br&gt;+ deleteHouse(id: Long): ResponseEntity&amp;lt;Void&amp;gt;" style="text;strokeColor=none;fillColor=none;align=left;verticalAlign=top;spacingLeft=4;spacingRight=4;overflow=hidden;rotatable=0;points=[[0,0.5],[1,0.5]];portConstraint=eastwest;whiteSpace=wrap;html=1;" parent="UDJwPJKPTDItisJJ8Bko-20" vertex="1">
          <mxGeometry y="60" width="340" height="130" as="geometry" />
        </mxCell>
        <mxCell id="UDJwPJKPTDItisJJ8Bko-25" value="House" style="swimlane;fontStyle=1;align=center;verticalAlign=top;childLayout=stackLayout;horizontal=1;startSize=26;horizontalStack=0;resizeParent=1;resizeParentMax=0;resizeLast=0;collapsible=1;marginBottom=0;whiteSpace=wrap;html=1;" parent="WIyWlLk6GJQsqaUBKTNV-1" vertex="1">
          <mxGeometry x="470" y="330" width="160" height="120" as="geometry" />
        </mxCell>
        <mxCell id="UDJwPJKPTDItisJJ8Bko-26" value="- id: Long&lt;br&gt;- type: HouseType&lt;br&gt;- pictureUrl: String&lt;br&gt;- pricing: Double&lt;br&gt;- location: GeoPoint" style="text;strokeColor=none;fillColor=none;align=left;verticalAlign=top;spacingLeft=4;spacingRight=4;overflow=hidden;rotatable=0;points=[[0,0.5],[1,0.5]];portConstraint=eastwest;whiteSpace=wrap;html=1;" parent="UDJwPJKPTDItisJJ8Bko-25" vertex="1">
          <mxGeometry y="26" width="160" height="94" as="geometry" />
        </mxCell>
        <mxCell id="UDJwPJKPTDItisJJ8Bko-37" style="edgeStyle=orthogonalEdgeStyle;rounded=0;orthogonalLoop=1;jettySize=auto;html=1;exitX=0.5;exitY=0;exitDx=0;exitDy=0;entryX=1;entryY=0.5;entryDx=0;entryDy=0;" parent="WIyWlLk6GJQsqaUBKTNV-1" source="UDJwPJKPTDItisJJ8Bko-29" target="UDJwPJKPTDItisJJ8Bko-21" edge="1">
          <mxGeometry relative="1" as="geometry" />
        </mxCell>
        <mxCell id="UDJwPJKPTDItisJJ8Bko-29" value="HouseService" style="swimlane;fontStyle=1;align=center;verticalAlign=top;childLayout=stackLayout;horizontal=1;startSize=26;horizontalStack=0;resizeParent=1;resizeParentMax=0;resizeLast=0;collapsible=1;marginBottom=0;whiteSpace=wrap;html=1;" parent="WIyWlLk6GJQsqaUBKTNV-1" vertex="1">
          <mxGeometry x="870" y="180" width="310" height="120" as="geometry" />
        </mxCell>
        <mxCell id="UDJwPJKPTDItisJJ8Bko-30" value="- houseRepository: HouseRepository" style="text;strokeColor=none;fillColor=none;align=left;verticalAlign=top;spacingLeft=4;spacingRight=4;overflow=hidden;rotatable=0;points=[[0,0.5],[1,0.5]];portConstraint=eastwest;whiteSpace=wrap;html=1;" parent="UDJwPJKPTDItisJJ8Bko-29" vertex="1">
          <mxGeometry y="26" width="310" height="26" as="geometry" />
        </mxCell>
        <mxCell id="UDJwPJKPTDItisJJ8Bko-31" value="" style="line;strokeWidth=1;fillColor=none;align=left;verticalAlign=middle;spacingTop=-1;spacingLeft=3;spacingRight=3;rotatable=0;labelPosition=right;points=[];portConstraint=eastwest;strokeColor=inherit;" parent="UDJwPJKPTDItisJJ8Bko-29" vertex="1">
          <mxGeometry y="52" width="310" height="8" as="geometry" />
        </mxCell>
        <mxCell id="UDJwPJKPTDItisJJ8Bko-32" value="+ getAllHouses(): List&amp;lt;HouseDto&amp;gt;&lt;br&gt;&lt;br&gt;+ getHouseByType(type: HouseType): List&amp;lt;HouseDto&amp;gt;" style="text;strokeColor=none;fillColor=none;align=left;verticalAlign=top;spacingLeft=4;spacingRight=4;overflow=hidden;rotatable=0;points=[[0,0.5],[1,0.5]];portConstraint=eastwest;whiteSpace=wrap;html=1;" parent="UDJwPJKPTDItisJJ8Bko-29" vertex="1">
          <mxGeometry y="60" width="310" height="60" as="geometry" />
        </mxCell>
        <mxCell id="UDJwPJKPTDItisJJ8Bko-46" style="edgeStyle=orthogonalEdgeStyle;rounded=0;orthogonalLoop=1;jettySize=auto;html=1;exitX=0;exitY=0.5;exitDx=0;exitDy=0;entryX=1;entryY=0.5;entryDx=0;entryDy=0;" parent="WIyWlLk6GJQsqaUBKTNV-1" source="UDJwPJKPTDItisJJ8Bko-33" target="UDJwPJKPTDItisJJ8Bko-26" edge="1">
          <mxGeometry relative="1" as="geometry" />
        </mxCell>
        <mxCell id="UDJwPJKPTDItisJJ8Bko-33" value="&lt;p style=&quot;margin:0px;margin-top:4px;text-align:center;text-decoration:underline;&quot;&gt;&lt;b&gt;HouseType:Enum&lt;/b&gt;&lt;/p&gt;&lt;hr&gt;&lt;p style=&quot;margin:0px;margin-left:8px;&quot;&gt;House&lt;/p&gt;&lt;p style=&quot;margin:0px;margin-left:8px;&quot;&gt;TownHouse&lt;/p&gt;&lt;p style=&quot;margin:0px;margin-left:8px;&quot;&gt;Condo&lt;/p&gt;&lt;p style=&quot;margin:0px;margin-left:8px;&quot;&gt;Apartment&lt;/p&gt;" style="verticalAlign=top;align=left;overflow=fill;fontSize=12;fontFamily=Helvetica;html=1;whiteSpace=wrap;" parent="WIyWlLk6GJQsqaUBKTNV-1" vertex="1">
          <mxGeometry x="690" y="353" width="160" height="100" as="geometry" />
        </mxCell>
        <mxCell id="UDJwPJKPTDItisJJ8Bko-45" style="edgeStyle=orthogonalEdgeStyle;rounded=0;orthogonalLoop=1;jettySize=auto;html=1;exitX=1;exitY=0.5;exitDx=0;exitDy=0;entryX=1;entryY=0.5;entryDx=0;entryDy=0;" parent="WIyWlLk6GJQsqaUBKTNV-1" source="UDJwPJKPTDItisJJ8Bko-43" target="UDJwPJKPTDItisJJ8Bko-30" edge="1">
          <mxGeometry relative="1" as="geometry" />
        </mxCell>
        <mxCell id="UDJwPJKPTDItisJJ8Bko-43" value="&lt;p style=&quot;margin:0px;margin-top:4px;text-align:center;&quot;&gt;&lt;i&gt;&amp;lt;&amp;lt;Interface&amp;gt;&amp;gt;&lt;/i&gt;&lt;br&gt;&lt;b&gt;HouseRepository&lt;/b&gt;&lt;br&gt;extends MongoRepository&lt;/p&gt;&lt;hr size=&quot;1&quot;&gt;&lt;p style=&quot;margin:0px;margin-left:4px;&quot;&gt;+ findAllByType(type:HouseType): List&amp;lt;House&amp;gt;&lt;/p&gt;" style="verticalAlign=top;align=left;overflow=fill;fontSize=12;fontFamily=Helvetica;html=1;whiteSpace=wrap;" parent="WIyWlLk6GJQsqaUBKTNV-1" vertex="1">
          <mxGeometry x="880" y="365" width="280" height="90" as="geometry" />
        </mxCell>
      </root>
    </mxGraphModel>
  </diagram>
</mxfile>
